HIERARCHY
ROOT SpineBase
{
  OFFSET 0.000000 0.000000 0.000000
  CHANNELS 6 Xposition Yposition Zposition Zrotation Xrotation Yrotation
  JOINT SpineMid
  {
    OFFSET 0.000000 29.795484 0.000000
    CHANNELS 3 Zrotation Xrotation Yrotation
    JOINT SpineShoulder
    {
      OFFSET -0.237727 22.055730 -0.680355
      CHANNELS 3 Zrotation Xrotation Yrotation
      JOINT Neck
      {
        OFFSET -0.164276 7.270282 -0.529324
        CHANNELS 3 Zrotation Xrotation Yrotation
        JOINT Head
        {
          OFFSET -1.474434 15.297296 -0.696272
          CHANNELS 3 Zrotation Xrotation Yrotation
          End Site
          {
            OFFSET 0 0 0
          }
        }
      }
      JOINT ShoulderLeft
      {
        OFFSET -16.483377 -3.022988 7.431109
        CHANNELS 3 Zrotation Xrotation Yrotation
        JOINT ElbowLeft
        {
          OFFSET -4.767317 -25.683209 0.650391
          CHANNELS 3 Zrotation Xrotation Yrotation
          JOINT WristLeft
          {
            OFFSET -2.150257 -20.885012 -6.406571
            CHANNELS 3 Zrotation Xrotation Yrotation
            JOINT HandLeft
            {
              OFFSET -0.681622 -5.710192 -1.049728
              CHANNELS 3 Zrotation Xrotation Yrotation
              JOINT HandTipLeft
              {
                OFFSET -1.068616 -5.898273 -2.095133
                CHANNELS 3 Zrotation Xrotation Yrotation
                End Site
                {
                  OFFSET 0 0 0
                }
              }
              JOINT ThumbLeft
              {
                OFFSET -3.467282 0.340880 -1.722806
                CHANNELS 3 Zrotation Xrotation Yrotation
                End Site
                {
                  OFFSET 0 0 0
                }
              }
            }
          }
        }
      }
      JOINT ShoulderRight
      {
        OFFSET 14.391689 -3.941175 -8.164424
        CHANNELS 3 Zrotation Xrotation Yrotation
        JOINT ElbowRight
        {
          OFFSET 3.642417 -23.479333 -1.612908
          CHANNELS 3 Zrotation Xrotation Yrotation
          JOINT WristRight
          {
            OFFSET -4.585606 -19.315968 -6.001373
            CHANNELS 3 Zrotation Xrotation Yrotation
            JOINT HandRight
            {
              OFFSET -3.487058 -7.307289 0.152925
              CHANNELS 3 Zrotation Xrotation Yrotation
              JOINT HandTipRight
              {
                OFFSET -1.528116 -5.901543 -1.803140
                CHANNELS 3 Zrotation Xrotation Yrotation
                End Site
                {
                  OFFSET 0 0 0
                }
              }
              JOINT ThumbRight
              {
                OFFSET -2.905240 0.016945 -2.445568
                CHANNELS 3 Zrotation Xrotation Yrotation
                End Site
                {
                  OFFSET 0 0 0
                }
              }
            }
          }
        }
      }
    }
  }
  JOINT HipLeft
  {
    OFFSET -7.812141 0.466885 -0.496715
    CHANNELS 3 Zrotation Xrotation Yrotation
    JOINT KneeLeft
    {
      OFFSET -2.044477 -28.350697 -0.907420
      CHANNELS 3 Zrotation Xrotation Yrotation
      JOINT AnkleLeft
      {
        OFFSET 6.274412 -37.657765 8.848956
        CHANNELS 3 Zrotation Xrotation Yrotation
        JOINT FootLeft
        {
          OFFSET -1.580090 -7.088918 -6.523824
          CHANNELS 3 Zrotation Xrotation Yrotation
          End Site
          {
            OFFSET 0 0 0
          }
        }
      }
    }
  }
  JOINT HipRight
  {
    OFFSET 6.032261 0.488670 -6.412484
    CHANNELS 3 Zrotation Xrotation Yrotation
    JOINT KneeRight
    {
      OFFSET 7.712771 -31.845238 -3.450430
      CHANNELS 3 Zrotation Xrotation Yrotation
      JOINT AnkleRight
      {
        OFFSET 7.322922 -34.308222 5.790831
        CHANNELS 3 Zrotation Xrotation Yrotation
        JOINT FootRight
        {
          OFFSET -0.330723 -8.090594 -5.811413
          CHANNELS 3 Zrotation Xrotation Yrotation
          End Site
          {
            OFFSET 0 0 0
          }
        }
      }
    }
  }
}
MOTION
Frames: 8
Frame Time: 0.033333
89.071970 77.815532 351.723498 -0.000000 0.000000 23.137214 -0.000000 -0.000000 -23.137214 -0.000000 0.000000 0.000000 -0.000000 0.000000 0.000000 0.000000 0.000000 0.000000 -0.000000 0.000000 0.000000 -0.000000 0.000000 0.000000 -0.000000 0.000000 0.000000 -0.000000 0.000000 0.000000 0.000000 0.000000 0.000000 0.000000 0.000000 0.000000 -0.000000 0.000000 0.000000 -0.000000 0.000000 0.000000 -0.000000 0.000000 0.000000 -0.000000 0.000000 0.000000 0.000000 0.000000 0.000000 0.000000 0.000000 0.000000 -0.000000 -0.000000 -23.137214 -0.000000 0.000000 0.000000 -0.000000 0.000000 0.000000 0.000000 0.000000 0.000000 -0.000000 -0.000000 -23.137214 -0.000000 0.000000 0.000000 -0.000000 0.000000 0.000000 0.000000 0.000000 0.000000
88.871086 77.806199 351.859937 0.029095 0.057195 23.089942 -0.049195 -0.041202 -23.089974 -0.000000 0.000000 0.000000 -0.000000 0.000000 0.000000 0.000000 0.000000 0.000000 -0.000000 0.000000 0.000000 -0.000000 0.000000 0.000000 3.949970 -0.921896 -0.587872 -3.959687 0.879158 0.650054 0.000000 0.000000 0.000000 0.000000 0.000000 0.000000 -0.000000 0.000000 0.000000 0.408439 -0.978932 0.109376 -0.406629 0.979686 -0.102410 2.289579 -1.877733 -0.177673 0.000000 0.000000 0.000000 0.000000 0.000000 0.000000 -0.049195 -0.041202 -23.089974 -0.000000 0.000000 0.000000 -0.000000 0.000000 0.000000 0.000000 0.000000 0.000000 -0.049195 -0.041202 -23.089974 -0.000000 0.000000 0.000000 0.218431 0.943026 -0.196100 0.000000 0.000000 0.000000
88.696292 77.799812 351.974132 0.056633 0.111460 23.053280 -0.095757 -0.080383 -23.053402 -0.000000 0.000000 0.000000 -0.000000 0.000000 0.000000 0.000000 0.000000 0.000000 -0.000000 0.000000 0.000000 -0.000000 0.000000 0.000000 7.675192 -1.465902 -1.151637 -8.291158 0.772304 1.653534 0.000000 0.000000 0.000000 0.000000 0.000000 0.000000 1.152406 0.858986 0.045359 -0.381039 -2.513838 0.113709 -1.689228 2.493273 -0.524926 5.074984 -4.122920 0.199483 0.000000 0.000000 0.000000 0.000000 0.000000 0.000000 -0.095757 -0.080383 -23.053402 -0.000000 0.000000 0.000000 0.806675 -0.757188 -0.572652 0.000000 0.000000 0.000000 -0.095757 -0.080383 -23.053402 -0.000000 0.000000 0.000000 0.324510 1.697531 -0.304096 0.000000 0.000000 0.000000
88.547586 77.796372 352.066084 0.082617 0.162804 23.027196 -0.139718 -0.117515 -23.027457 -0.000000 0.000000 0.000000 0.691625 0.640652 0.089334 0.000000 0.000000 0.000000 -0.000000 0.000000 0.000000 -0.000000 0.000000 0.000000 11.145720 -1.619330 -1.728621 -11.258606 0.069358 2.263549 0.000000 0.000000 0.000000 0.000000 0.000000 0.000000 1.572892 1.162435 0.056166 -0.463983 -3.254829 0.107327 -2.352262 3.270795 -0.656876 6.818951 -5.460517 0.355377 0.000000 0.000000 0.000000 0.000000 0.000000 0.000000 -0.139718 -0.117515 -23.027457 -0.000000 0.000000 0.000000 1.088893 -0.985844 -0.780831 0.000000 0.000000 0.000000 -0.139718 -0.117515 -23.027457 -0.000000 0.000000 0.000000 0.320963 2.278907 -0.325484 0.000000 0.000000 0.000000
88.424969 77.795878 352.135794 0.107050 0.211233 23.011648 -0.181107 -0.152576 -23.012086 -0.000000 0.000000 0.000000 0.833283 0.734261 0.103319 0.000000 0.000000 0.000000 -0.000000 0.000000 0.000000 -0.000000 0.000000 0.000000 14.343737 -1.379546 -2.352666 -13.372850 -1.316398 2.682570 0.000000 0.000000 0.000000 0.000000 0.000000 0.000000 1.876350 1.371595 0.061215 -0.442089 -3.701598 0.064999 -2.856305 3.744870 -0.701939 7.987003 -6.304711 0.462072 0.000000 0.000000 0.000000 0.000000 0.000000 0.000000 -0.181107 -0.152576 -23.012086 -0.000000 0.000000 0.000000 1.283107 -1.104584 -0.932873 0.000000 0.000000 0.000000 0.462338 -0.724232 -23.161841 -0.816432 0.272450 0.156619 0.208688 2.697720 -0.260719 0.000000 0.000000 0.000000
88.328441 77.798331 352.183261 0.129937 0.256753 23.006582 -0.219951 -0.185546 -23.007229 -0.000000 0.000000 0.000000 0.930430 0.767615 0.110053 0.000000 0.000000 0.000000 0.455184 0.715386 -0.124218 0.262585 -1.312103 -0.026924 16.546074 -0.134318 -3.074308 -14.658118 -3.324632 2.940435 0.000000 0.000000 0.000000 0.000000 0.000000 0.000000 2.056273 1.481628 0.061774 -0.297005 -3.870331 -0.012963 -3.171084 3.899266 -0.652039 8.548379 -6.650241 0.469011 0.000000 0.000000 0.000000 0.000000 0.000000 0.000000 -0.219951 -0.185546 -23.007229 -0.000000 0.000000 0.000000 1.385919 -1.109221 -1.026725 0.000000 0.000000 0.000000 0.519359 -0.903360 -23.194061 -0.962271 0.368549 0.196952 -0.013226 2.960104 -0.109160 0.000000 0.000000 0.000000
88.265242 77.813292 352.168370 0.150120 0.310060 23.012677 -0.259388 -0.226696 -23.013596 -0.000000 0.000000 0.000000 0.821492 0.679568 0.097980 0.000000 0.000000 0.000000 0.766867 0.749770 -0.124948 0.367737 -1.513395 -0.131805 19.766236 1.460015 -4.181239 -14.963108 -7.354769 3.204406 0.000000 0.000000 0.000000 0.000000 0.000000 0.000000 1.992392 1.371910 0.051918 0.181324 -3.589072 -0.156625 -3.894269 3.433148 -0.340317 8.747982 -5.554130 0.047298 0.000000 0.000000 0.000000 0.000000 0.000000 0.000000 -0.259388 -0.226696 -23.013596 -0.000000 0.000000 0.000000 1.333491 -1.054011 -0.990974 0.000000 0.000000 0.000000 0.504611 -1.148871 -23.252501 -1.066030 0.545544 0.253152 -0.468152 2.911561 0.224982 0.000000 0.000000 0.000000
88.219559 77.823992 352.155835 0.167443 0.354637 22.994733 -0.292679 -0.261045 -22.995918 -0.000000 0.000000 0.000000 0.805634 0.608192 0.090975 0.000000 0.000000 0.000000 1.101467 0.775853 -0.123822 0.494970 -1.619452 -0.260838 21.440648 3.141545 -5.055743 -14.405632 -9.846565 3.172486 0.000000 0.000000 0.000000 0.000000 0.000000 0.000000 1.842692 1.254329 0.047674 0.770601 -3.044778 -0.381227 -3.319046 2.892507 -0.090021 6.804370 -4.298370 -0.189906 0.000000 0.000000 0.000000 0.000000 0.000000 0.000000 -0.292679 -0.261045 -22.995918 -0.000000 0.000000 0.000000 1.281060 -0.820367 -0.995977 0.000000 0.000000 0.000000 0.492691 -1.353790 -23.278262 -1.153344 0.693269 0.300390 -1.018093 2.990581 0.623683 0.000000 0.000000 0.000000
